<svg width="16" height="16" xmlns="http://www.w3.org/2000/svg">

 <g>
  <title>Layer 1</title>
  <path d="m8,0.58643c0,0 0,0 0,0.03716c0,0.07432 0.04243,0.22315 0.03716,0.29729c-0.01863,0.26211 -0.08142,0.44425 -0.14864,0.74322c-0.04157,0.18487 -0.14538,0.40991 -0.1858,0.52025c-0.06883,0.18791 -0.09239,0.21641 -0.11148,0.29729c-0.00854,0.03617 -0.03716,0.07432 -0.03716,0.07432c-0.03716,0.03716 -0.03716,0.07432 -0.03716,0.11148c0,0.03716 -0.01705,0.02577 -0.03716,0.07432c-0.01422,0.03433 0,0.07432 0,0.07432c-0.03716,0.03716 -0.02294,0.07715 -0.03716,0.11148c-0.02011,0.04855 -0.07432,0.14864 -0.07432,0.14864c-0.03716,0.07432 -0.03716,0.07432 -0.03716,0.11148c0,0 -0.05421,0.06293 -0.07432,0.11148c-0.01422,0.03433 0,0.03716 -0.03716,0.07432c-0.03716,0.03716 -0.11791,0.10601 -0.14864,0.14864c-0.04859,0.06741 -0.07432,0.11148 -0.11148,0.14864c0,0 -0.01557,0.05273 -0.07432,0.11148c-0.05876,0.05876 -0.19272,0.17438 -0.26013,0.22296c-0.08527,0.06146 -0.11976,0.13839 -0.26013,0.26013c-0.0397,0.03443 -0.13722,0.22988 -0.1858,0.29729c-0.03073,0.04263 -0.11148,0.11148 -0.1858,0.1858c-0.03716,0.03716 -0.16627,0.15419 -0.1858,0.1858c-0.04369,0.07068 -0.13429,0.0482 -0.22296,0.14864c-0.05499,0.06229 -0.11148,0.11148 -0.14864,0.14864c0,0 0,0 -0.03716,0.03716c-0.14864,0.14864 -0.1858,0.22296 -0.29729,0.29729c0,0 -0.03716,0.03716 -0.03716,0.03716c-0.11148,0.11148 -0.29116,0.14024 -0.37161,0.33445c-0.01422,0.03433 -0.07432,0.07432 -0.11148,0.11148c-0.03716,0.03716 -0.08219,0.10086 -0.1858,0.1858c-0.04064,0.03332 -0.04805,0.01088 -0.07432,0.03716c-0.02628,0.02628 0,0.03716 -0.03716,0.07432c-0.03716,0.03716 -0.07126,0.01438 -0.11148,0.11148c-0.01422,0.03433 -0.10006,0.15556 -0.14864,0.22296c-0.06146,0.08527 -0.12955,0.06777 -0.14864,0.14864c-0.00854,0.03617 -0.01963,0.07872 -0.03716,0.11148c-0.06322,0.11813 -0.13722,0.11839 -0.1858,0.1858c-0.06146,0.08527 -0.04805,0.08521 -0.07432,0.11148c-0.02628,0.02628 -0.04804,0.01088 -0.07432,0.03716c-0.02628,0.02628 -0.03716,0.03716 -0.03716,0.07432c0,0 -0.03716,0 -0.03716,0.07432c0,0 -0.03716,0.07432 -0.03716,0.07432c-0.03716,0.07432 -0.04588,0.1543 -0.07432,0.22296c-0.02011,0.04855 -0.01088,0.08521 -0.03716,0.11148c-0.02628,0.02628 -0.03716,0.03716 -0.03716,0.07432c0,0.03716 -0.03716,0.07432 -0.03716,0.11148c0,0 -0.01705,0.02577 -0.03716,0.07432c-0.01422,0.03433 0,0.03716 0,0.11148c0,0 0,0.03716 0,0.07432c0,0 -0.02294,0.03999 -0.03716,0.07432c-0.02011,0.04855 -0.09239,0.10493 -0.11148,0.1858c-0.01708,0.07233 -0.03716,0.11148 -0.03716,0.14864c0,0 0,0 0,0.03716c0,0.03716 -0.03716,0.11148 -0.03716,0.14864c0,0.14864 0,0.22297 0,0.33445c0,0.03716 0.02294,0.11431 0.03716,0.14864c0.02011,0.04855 0.03716,0.07432 0.03716,0.07432c0,0.07432 0,0.11148 0,0.22296c0,0.03716 0.03716,0.11148 0.03716,0.22296c0,0.07432 0.01834,0.14413 0.03716,0.26013c0.03571,0.22009 0.03716,0.29729 0.03716,0.52025c0,0.14864 0.04599,0.33188 0.07432,0.44593c0.05449,0.21937 0.09276,0.33102 0.11148,0.48309c0.01816,0.14753 0.02935,0.33736 0.07432,0.44593c0.0636,0.15354 0.10123,0.23124 0.22296,0.37161c0.06887,0.0794 0.23083,0.2495 0.33445,0.33445c0.12193,0.09995 0.41798,0.2369 0.81754,0.40877c0.15266,0.06567 0.1858,0.11148 0.37161,0.14864c0,0 0.03716,0.03716 0.03716,0.03716c0.03716,0.03716 0.09554,0.09957 0.26013,0.1858c0.10409,0.05454 0.30515,0.17518 0.40877,0.26013c0.08128,0.06664 0.14107,0.11747 0.26013,0.26013c0.05324,0.0638 0.11431,0.13442 0.14864,0.14864c0.04855,0.02011 0.03999,0.0601 0.07432,0.07432c0.04855,0.02011 0.03716,0.03716 0.07432,0.07432c0.03716,0.03716 0.12258,-0.00665 0.1858,0.11148c0.01753,0.03276 0.04282,0.00872 0.11148,0.03716c0.04855,0.02011 0.0748,0.03121 0.11148,0.03716c0.116,0.01882 0.13794,0.07364 0.33445,0.11148c0.03649,0.00703 0.1858,0.03716 0.26013,0.07432c0.14864,0.07432 0.26013,0.11148 0.40877,0.1858c0,0 0.01088,0.01088 0.03716,0.03716c0.02628,0.02628 0.03716,0 0.03716,0c0.03716,0 0.06293,0.01705 0.11148,0.03716c0.03433,0.01422 0.03373,0.01844 0.1858,0.03716c0.07376,0.00908 0.14864,0 0.33445,0c0.1858,0 0.26063,0.01226 0.40877,0c0.22527,-0.01864 0.40761,-0.05573 0.8547,-0.07432c0.14851,-0.00618 0.63826,-0.05972 0.81754,-0.14864c0.19411,-0.09629 0.33074,-0.19767 0.52025,-0.48309c0.09193,-0.13845 0.12199,-0.32812 0.1858,-0.44593c0.1348,-0.24884 0.23024,-0.44191 0.37161,-0.70605c0.03921,-0.07326 0.19062,-0.33018 0.22296,-0.37161c0.13335,-0.17079 0.1858,-0.29729 0.37161,-0.48309c0.11148,-0.11148 0.19733,-0.17536 0.29729,-0.29729c0.08494,-0.10362 0.14102,-0.19013 0.1858,-0.26013c0.12824,-0.20043 0.1858,-0.26013 0.33445,-0.48309c0.07432,-0.11148 0.19683,-0.36202 0.26013,-0.44593c0.2304,-0.30544 0.22297,-0.40877 0.37161,-0.70605c0.07432,-0.14864 0.17583,-0.44879 0.22297,-0.59457c0.06157,-0.19041 0.09416,-0.30088 0.14864,-0.52025c0.02833,-0.11405 0.03716,-0.33445 0.03716,-0.48309c0,-0.26013 0.03065,-0.37287 0,-0.74322c-0.01864,-0.22527 -0.07024,-0.372 -0.11148,-0.78038c-0.03382,-0.3348 -0.05407,-0.52548 -0.11148,-0.70605c-0.11089,-0.34879 -0.20189,-0.47575 -0.29729,-0.70605c-0.04497,-0.10857 -0.1132,-0.29564 -0.14864,-0.33445c-0.19572,-0.21432 -0.35053,-0.35864 -0.55741,-0.63173c-0.08091,-0.1068 -0.26449,-0.36741 -0.37161,-0.48309c-0.23278,-0.25138 -0.35436,-0.43725 -0.89186,-0.74322c-0.14443,-0.08221 -0.34272,-0.24987 -0.48309,-0.37161c-0.23821,-0.2066 -0.38782,-0.31362 -0.63173,-0.52025c-0.1203,-0.10191 -0.22296,-0.22296 -0.33445,-0.33445c-0.1858,-0.1858 -0.33165,-0.30019 -0.40877,-0.37161c-0.25138,-0.23278 -0.32453,-0.30593 -0.52025,-0.52025c-0.10632,-0.11642 -0.34231,-0.36098 -0.44593,-0.44593c-0.12192,-0.09995 -0.11148,-0.11148 -0.14864,-0.14864c-0.03716,-0.03716 -0.18087,-0.15381 -0.29729,-0.26013c-0.21432,-0.19572 -0.31111,-0.23728 -0.44593,-0.33445c-0.04263,-0.03073 -0.08075,-0.06885 -0.11148,-0.11148c-0.09717,-0.13482 -0.14864,-0.26013 -0.26013,-0.55741l-0.03716,-0.07432"
        id="svg_1" stroke="#000" fill="none"/>
  <path d="m6.84801,3.33632c0,0.03716 0,0.07432 0,0.07432c0,0 0,0.03716 0,0.03716c0,0.03716 0,0.03716 0,0.11148c0,0 -0.01834,0.10697 -0.03716,0.22296c-0.02976,0.1834 -0.03716,0.22296 -0.03716,0.48309c0,0.11148 -0.07235,0.44633 -0.11148,0.63173c-0.07076,0.33522 -0.09276,0.51682 -0.11148,0.66889c-0.02724,0.22129 -0.0193,0.41021 -0.03716,0.52025c-0.01882,0.11599 -0.02526,0.18676 -0.03716,0.26013c-0.01882,0.11599 -0.03716,0.14864 -0.03716,0.33445c0,0.07432 -0.03716,0.26013 -0.03716,0.29729c0,0.1858 0,0.29729 0,0.48309c0,0.07432 -0.00307,0.26025 0,0.29729c0.01864,0.22527 0.111,0.36258 0.14864,0.59457c0.01191,0.07336 0.12432,0.32732 0.22296,0.52025c0.12884,0.25198 0.23905,0.36427 0.33445,0.59457c0.04497,0.10857 0.10157,0.19445 0.29729,0.40877c0.10632,0.11642 0.2845,0.31174 0.40877,0.40877c0.34158,0.2667 0.43712,0.27427 0.66889,0.40877c0.07187,0.04171 0.32681,0.23396 0.48309,0.33445c0.39165,0.25182 0.48836,0.25126 0.74322,0.40877c0.11397,0.07044 0.39543,0.24342 0.55741,0.33445c0.34891,0.19608 0.48005,0.22713 0.63173,0.33445c0.10938,0.07739 0.22297,0.14864 0.33445,0.26013c0.03716,0.03716 0.16569,0.10009 0.1858,0.14864c0.01422,0.03433 0.03716,0.03716 0.11148,0.1858c0.03716,0.07432 0.07432,0.11148 0.07432,0.11148c0.03716,0.07432 0.03716,0.11148 0.03716,0.11148c0,0 0,0.03716 0,0.03716l0,0"
        id="svg_2" stroke="#000" fill="none"/>
 </g>
</svg>