<svg width="16" height="16" xmlns="http://www.w3.org/2000/svg">
    <g>
        <title>Layer 1</title>
        <polyline stroke-linecap="round" id="svg_2" points="446,95 446,93 " stroke="#000" fill="none"/>
        <polyline fill="none" stroke="#000" opacity="NaN" points="307,520 " id="svg_12" stroke-linecap="round"/>
        <polyline fill="none" stroke="#000" opacity="NaN" points="853.0000000000001,422 " id="svg_13"
                  stroke-linecap="round"/>
        <polyline fill="none" stroke="#000" opacity="NaN" points="439,431 " id="svg_14" stroke-linecap="round"/>
        <polyline fill="none" stroke="#000" opacity="NaN" points="846,412 " id="svg_15" stroke-linecap="round"/>
        <polyline fill="none" stroke="#000" opacity="NaN" points="867,423 " id="svg_16" stroke-linecap="round"/>
        <polyline fill="none" stroke="#ffffff" opacity="NaN" points="884,426.99999999999994 " id="svg_17"
                  stroke-linecap="round"/>
        <polyline fill="none" stroke="#ffffff" opacity="NaN" points="880.9999999999999,390 " id="svg_18"
                  stroke-linecap="round"/>
        <polyline fill="none" stroke="#ffffff" opacity="NaN" points="841,404 " id="svg_19" stroke-linecap="round"/>
        <polyline fill="none" stroke="#ffffff" opacity="NaN" points="811,425 " id="svg_20" stroke-linecap="round"/>
        <polyline fill="none" stroke="#ffffff" opacity="NaN" points="1131,425 " id="svg_21" stroke-linecap="round"/>
        <polyline fill="none" stroke="#ffffff" opacity="NaN" points="857,425 " id="svg_22" stroke-linecap="round"/>
        <polyline fill="none" stroke="#ffffff" opacity="NaN" points="1231,341 " id="svg_23" stroke-linecap="round"/>
        <path d="m7.64621,1.05195c-0.12987,0 -0.2839,-0.03993 -0.51948,0.12987c-0.149,0.10739 -0.29787,0.35409 -0.77922,0.90909c-0.42546,0.49055 -0.61321,1.04392 -1.16883,1.55844c-0.21307,0.19731 -0.47955,0.41377 -0.64935,0.64935c-0.21478,0.29799 -0.38961,0.51948 -0.51948,0.64935c-0.12987,0.12987 -0.18946,0.21993 -0.25974,0.38961c-0.0497,0.11998 -0.18946,0.21993 -0.25974,0.38961c-0.0497,0.11998 -0.15235,0.24061 -0.25974,0.38961c-0.1698,0.23558 -0.31932,0.47967 -0.38961,0.64935c-0.0497,0.11998 -0.10003,0.26321 -0.12987,0.38961c-0.06672,0.28263 -0.12987,0.38961 -0.25974,0.64935c-0.12987,0.25974 -0.14861,0.51093 -0.25974,0.77922c-0.15716,0.37942 -0.25974,0.64935 -0.25974,0.77922c0,0.12987 0,0.38961 0,0.64935c0,0.12987 0,0.38961 0,0.64935c0,0.25974 0,0.38961 0,0.64935c0,0.25974 0.05958,0.73941 0.12987,0.90909c0.0994,0.23997 0.08994,0.67351 0.25974,0.90909c0.21478,0.29799 0.38961,0.51948 0.51948,0.64935c0.12987,0.12987 0.2839,0.21981 0.51948,0.38961c0.149,0.10739 0.41377,0.21981 0.64935,0.38961c0.29799,0.21478 0.50371,0.4537 0.90909,0.51948c0.25639,0.04161 0.36672,0.06315 0.64935,0.12987c0.25279,0.05968 0.51948,0 0.77922,0c0.25974,0 0.52295,0.10003 0.64935,0.12987c0.28263,0.06672 0.51948,0.12987 0.77922,0.12987c0.25974,0 0.51948,0 0.77922,0c0.12987,0 0.38961,0 0.77922,0c0.25974,0 0.60954,-0.05958 0.77922,-0.12987c0.23997,-0.0994 0.36672,-0.06315 0.64935,-0.12987c0.25279,-0.05968 0.52937,-0.08017 0.64935,-0.12987c0.33937,-0.14057 0.54364,-0.34968 0.77922,-0.51948c0.29799,-0.21478 0.35136,-0.56444 0.64935,-0.77922c0.23558,-0.1698 0.41209,-0.50035 0.51948,-0.64935c0.1698,-0.23558 0.348,-0.78257 0.38961,-1.03896c0.06578,-0.40538 0.32383,-0.63358 0.38961,-1.03896c0.04161,-0.25639 0.06315,-0.49659 0.12987,-0.77922c0.02984,-0.1264 0,-0.51948 0,-0.64935c0,-0.25974 0,-0.51948 0,-0.77922c0,-0.25974 -0.06315,-0.49659 -0.12987,-0.77922c-0.02984,-0.1264 -0.18946,-0.47967 -0.25974,-0.64935c-0.1491,-0.35995 -0.17483,-0.6111 -0.38961,-0.90909c-0.1698,-0.23558 -0.17988,-0.43792 -0.51948,-0.90909c-0.10739,-0.149 -0.28222,-0.37048 -0.38961,-0.51948c-0.1698,-0.23558 -0.3047,-0.35136 -0.51948,-0.64935c-0.1698,-0.23558 -0.31933,-0.3498 -0.38961,-0.51948c-0.0497,-0.11998 -0.08994,-0.2839 -0.25974,-0.51948c-0.10739,-0.149 -0.31932,-0.21993 -0.38961,-0.38961c-0.0497,-0.11998 -0.18945,-0.21993 -0.25974,-0.38961c-0.0497,-0.11998 -0.31932,-0.21993 -0.38961,-0.38961c-0.0497,-0.11998 -0.09162,-0.3047 -0.38961,-0.51948c-0.23558,-0.1698 -0.38961,-0.25974 -0.51948,-0.38961c-0.12987,-0.12987 -0.25974,-0.12987 -0.38961,-0.25974c-0.12987,-0.12987 -0.16791,-0.16791 -0.25974,-0.25974c-0.09183,-0.09183 -0.29778,0.09183 -0.38961,0c-0.09183,-0.09183 -0.12987,-0.12987 -0.25974,-0.12987l-0.12987,0l0,-0.12987"
              id="svg_9" stroke="#ffffff" fill="none"/>
        <path d="m4.88311,4.16883c0,0.12987 -0.12987,0.25974 -0.12987,0.38961c0,0.12987 -0.06315,0.23685 -0.12987,0.51948c-0.02984,0.1264 0,0.25974 0,0.38961c0,0.25974 0,0.38961 0,0.64935c0,0.12987 0.05959,0.21993 0.12987,0.38961c0.0497,0.11998 -0.0497,0.3995 0,0.51948c0.07029,0.16968 0.15235,0.24061 0.25974,0.38961c0.1698,0.23558 0.16791,0.42765 0.25974,0.51948c0.09183,0.09183 0.37048,0.15235 0.51948,0.25974c0.23558,0.1698 0.37048,0.28222 0.51948,0.38961c0.23558,0.1698 0.50454,0.29537 0.77922,0.38961c0.62637,0.21491 0.98041,0.38379 1.42857,0.51948c0.37289,0.1129 0.64935,0.12987 0.90909,0.25974c0.25974,0.12987 0.42765,0.16791 0.51948,0.25974c0.18366,0.18366 0.29778,0.03804 0.38961,0.12987c0.18366,0.18366 0.51948,0 0.64935,0.12987c0.12987,0.12987 0.21993,0.18945 0.38961,0.25974c0.11998,0.0497 0.38961,0.12987 0.51948,0.25974c0.12987,0.12987 0.16791,0.16791 0.25974,0.25974c0.09183,0.09183 0.12987,0.12987 0.12987,0.25974c0,0.12987 0.12987,0.12987 0.12987,0.25974c0,0.12987 0.03804,0.16791 0.12987,0.25974c0.09183,0.09183 -0.09183,0.29778 0,0.38961c0.09183,0.09183 0.12987,0.12987 0.12987,0.25974c0,0.12987 0,0.25974 0,0.38961c0,0.12987 0,0.25974 0,0.38961l0,0.12987l0.12987,0"
              id="svg_10" stroke="#ffffff" fill="none"/>
        <polyline stroke-linecap="round" id="svg_24"
                  points="18.38960653566609,3.6493513064191987 18.38960653566609,3.6493513064191987 " stroke="#ffffff"
                  fill="none"/>
        <polyline transform="rotate(98.1301 7.67757 0.526388)" stroke="#ffffff" stroke-linecap="round" id="svg_28"
                  points="7.677573577375021,0.5263876314328533 7.677573577375021,0.5263876314328533 " fill="none"/>
        <path d="m7.82087,0.31144c0,-0.03583 0.01699,-0.04118 0.03583,-0.07165c0.04211,-0.06814 0.12863,-0.11714 0.25078,-0.2866c0.19312,-0.26795 0.42082,-0.54315 0.53738,-0.7165c0.09995,-0.14865 0.1433,-0.2866 0.21495,-0.4299l0.03582,-0.07165l0.10748,-0.25078"
              id="svg_29" stroke="#ffffff" fill="none"/>
        <polyline stroke-linecap="round" id="svg_30"
                  points="3.665155912359122,-1.7664225516569179 3.70098107010822,-1.7664225516569179 3.7726313856064166,-1.7305973939078196 "
                  stroke="#ffffff" fill="none"/>
        <path d="m8.35825,0.31144c0,-0.03583 0,-0.03583 0,-0.07165c0,-0.07165 -0.02954,-0.07516 -0.07165,-0.1433c-0.01883,-0.03047 -0.04632,-0.01049 -0.07165,-0.03583c-0.02533,-0.02533 -0.03582,-0.03583 -0.07165,-0.03583c-0.03583,0 -0.03583,-0.03583 -0.07165,-0.03583c0,0 -0.03583,-0.03583 -0.07165,-0.07165c-0.03583,-0.03583 -0.07165,-0.07165 -0.10748,-0.1433c-0.03583,-0.07165 -0.07165,-0.32243 -0.07165,-0.5732l0,-0.1433"
              id="svg_31" stroke="#ffffff" fill="none"/>
        <path d="m7.53427,0.88464c0.03582,-0.03583 0.07261,-0.06342 0.10748,-0.07165c0.07796,-0.0184 0.10748,-0.03583 0.1433,-0.03583c0,0 0,-0.03583 0.03583,-0.03583c0.03583,0 0.03583,-0.03583 0.07165,-0.03583l-0.03583,0l0,0"
              id="svg_32" stroke="#ffffff" fill="none"/>
        <polyline stroke-linecap="round" id="svg_33"
                  points="8.107475473247298,-0.8349684501803658 8.107475473247298,-0.8349684501803658 " stroke="#ffffff"
                  fill="none"/>
        <path d="m7.46262,0.99211c0.03583,0 0.04632,-0.01049 0.07165,-0.03583c0.02533,-0.02533 0.03582,-0.03583 0.07165,-0.03583c0.03583,0 0.03583,-0.03583 0.03583,-0.03583c0.03583,0 0.04632,-0.01049 0.07165,-0.03583c0.02533,-0.02533 0.02484,-0.05226 0.07165,-0.07165c0.0331,-0.01371 0.02212,-0.00273 0.03583,-0.03583c0.01939,-0.04681 0.07165,-0.07165 0.07165,-0.10748c0,-0.03583 0.01049,-0.04632 0.03582,-0.07165c0.02533,-0.02533 0.01049,-0.04632 0.03583,-0.07165c0.02533,-0.02533 0.05794,-0.07438 0.07165,-0.10748c0.01939,-0.04681 0.09925,-0.10843 0.10748,-0.1433c0.0184,-0.07796 0.05794,-0.1102 0.07165,-0.1433c0.01939,-0.04681 0.03583,-0.07165 0.03583,-0.07165c0,-0.03583 0.03582,-0.07165 0.03582,-0.10748c0,-0.03583 0,-0.07165 0,-0.10748c0,-0.03583 0.01049,-0.04632 0.03583,-0.07165c0.02533,-0.02533 -0.00353,-0.07182 0,-0.10748c0.018,-0.18178 0.25078,-0.46573 0.39408,-0.64485l0.07165,-0.1433"
              id="svg_34" stroke="#ffffff" fill="none"/>
        <polyline stroke-linecap="round" id="svg_35"
                  points="21.39860899816271,-0.225940768445696 21.39860899816271,-0.225940768445696 " stroke="#ffffff"
                  fill="none"/>
    </g>

</svg>